ffmpeg started on 2016-12-05 at 12:16:42
Report written to "Output/x264/results/ffmpeg/crowd_run_2160p50faster2000k.log"
Command line:
Tools/ffmpeg/ffmpeg -benchmark -y -i Input/y4m/crowd_run_2160p50.y4m -c:v libx264 -preset faster -b:v 2000k -an Output/x264/encoded/crowd_run_2160p50faster2000k.mkv
ffmpeg version N-82227-gdb23fde Copyright (c) 2000-2016 the FFmpeg developers
  built with gcc 5.4.0 (Ubuntu 5.4.0-6ubuntu1~16.04.2) 20160609
  configuration: --prefix=/home/jaroslav/ffmpeg_build --pkg-config-flags=--static --extra-cflags=-I/home/jaroslav/ffmpeg_build/include --extra-ldflags=-L/home/jaroslav/ffmpeg_build/lib --bindir=/home/jaroslav/bin --enable-gpl --enable-libass --enable-libfdk-aac --enable-libfreetype --enable-libmp3lame --enable-libopus --enable-libtheora --enable-libvorbis --enable-libvpx --enable-libx264 --enable-libx265 --enable-nvenc --enable-libmfx --enable-libxvid --enable-libgsm --enable-libopencore-amrnb --enable-version3 --enable-nonfree
  libavutil      55. 35.100 / 55. 35.100
  libavcodec     57. 66.101 / 57. 66.101
  libavformat    57. 57.100 / 57. 57.100
  libavdevice    57.  2.100 / 57.  2.100
  libavfilter     6. 66.100 /  6. 66.100
  libswscale      4.  3.100 /  4.  3.100
  libswresample   2.  4.100 /  2.  4.100
  libpostproc    54.  2.100 / 54.  2.100
Input #0, yuv4mpegpipe, from 'Input/y4m/crowd_run_2160p50.y4m':
  Duration: 00:00:10.00, start: 0.000000, bitrate: 4976642 kb/s
    Stream #0:0: Video: rawvideo (I420 / 0x30323449), yuv420p(progressive), 3840x2160, SAR 1:1 DAR 16:9, 50 fps, 50 tbr, 50 tbn, 50 tbc
[libx264 @ 0x451b1c0] using SAR=1/1
[libx264 @ 0x451b1c0] using cpu capabilities: MMX2 SSE2Fast SSSE3 SSE4.2 AVX FMA3 AVX2 LZCNT BMI2
[libx264 @ 0x451b1c0] profile High, level 5.2
[libx264 @ 0x451b1c0] 264 - core 148 - H.264/MPEG-4 AVC codec - Copyleft 2003-2016 - http://www.videolan.org/x264.html - options: cabac=1 ref=2 deblock=1:0:0 analyse=0x3:0x113 me=hex subme=4 psy=1 psy_rd=1.00:0.00 mixed_ref=0 me_range=16 chroma_me=1 trellis=1 8x8dct=1 cqm=0 deadzone=21,11 fast_pskip=1 chroma_qp_offset=0 threads=6 lookahead_threads=1 sliced_threads=0 nr=0 decimate=1 interlaced=0 bluray_compat=0 constrained_intra=0 bframes=3 b_pyramid=2 b_adapt=1 b_bias=0 direct=1 weightb=1 open_gop=0 weightp=1 keyint=250 keyint_min=25 scenecut=40 intra_refresh=0 rc_lookahead=20 rc=abr mbtree=1 bitrate=2000 ratetol=1.0 qcomp=0.60 qpmin=0 qpmax=69 qpstep=4 ip_ratio=1.40 aq=1:1.00
Output #0, matroska, to 'Output/x264/encoded/crowd_run_2160p50faster2000k.mkv':
  Metadata:
    encoder         : Lavf57.57.100
    Stream #0:0: Video: h264 (libx264) (H264 / 0x34363248), yuv420p, 3840x2160 [SAR 1:1 DAR 16:9], q=-1--1, 2000 kb/s, 50 fps, 1k tbn, 50 tbc
    Metadata:
      encoder         : Lavc57.66.101 libx264
    Side data:
      cpb: bitrate max/min/avg: 0/0/2000000 buffer size: 0 vbv_delay: -1
Stream mapping:
  Stream #0:0 -> #0:0 (rawvideo (native) -> h264 (libx264))
Press [q] to stop, [?] for help
frame=   19 fps=0.0 q=0.0 size=       0kB time=00:00:00.00 bitrate=N/A speed=   0x    frame=   27 fps= 15 q=0.0 size=       0kB time=00:00:00.00 bitrate=N/A speed=   0x    frame=   36 fps= 16 q=53.0 size=       1kB time=00:00:00.06 bitrate=  96.1kbits/s speed=0.0269x    frame=   44 fps= 15 q=65.0 size=       1kB time=00:00:00.22 bitrate=  26.5kbits/s speed=0.0773x    frame=   53 fps= 16 q=67.0 size=       1kB time=00:00:00.40 bitrate=  14.6kbits/s speed=0.119x    frame=   62 fps= 16 q=68.0 size=       1kB time=00:00:00.58 bitrate=  10.1kbits/s speed=0.149x    frame=   71 fps= 16 q=69.0 size=       1kB time=00:00:00.76 bitrate=   7.7kbits/s speed=0.173x    frame=   80 fps= 16 q=69.0 size=       1kB time=00:00:00.94 bitrate=   6.2kbits/s speed=0.186x    frame=   89 fps= 16 q=69.0 size=       1kB time=00:00:01.12 bitrate=   5.2kbits/s speed=0.202x    frame=   98 fps= 16 q=69.0 size=       1kB time=00:00:01.30 bitrate=   4.5kbits/s speed=0.214x    frame=  107 fps= 16 q=69.0 size=       1kB time=00:00:01.48 bitrate=   4.0kbits/s speed=0.225x    frame=  116 fps= 16 q=69.0 size=       1kB time=00:00:01.66 bitrate=   3.5kbits/s speed=0.23x    frame=  125 fps= 16 q=69.0 size=       1kB time=00:00:01.84 bitrate=   3.2kbits/s speed=0.239x    frame=  134 fps= 16 q=69.0 size=       1kB time=00:00:02.02 bitrate=   2.9kbits/s speed=0.246x    frame=  143 fps= 16 q=69.0 size=       1kB time=00:00:02.20 bitrate=   2.7kbits/s speed=0.252x    frame=  152 fps= 16 q=69.0 size=       1kB time=00:00:02.38 bitrate=   2.5kbits/s speed=0.255x    frame=  161 fps= 16 q=68.0 size=       1kB time=00:00:02.56 bitrate=   2.3kbits/s speed=0.26x    frame=  168 fps= 16 q=68.0 size=       1kB time=00:00:02.70 bitrate=   2.2kbits/s speed=0.26x    frame=  177 fps= 16 q=68.0 size=       1kB time=00:00:02.88 bitrate=   2.0kbits/s speed=0.264x    frame=  186 fps= 16 q=68.0 size=       1kB time=00:00:03.06 bitrate=   1.9kbits/s speed=0.268x    frame=  195 fps= 16 q=68.0 size=       1kB time=00:00:03.24 bitrate=   1.8kbits/s speed=0.272x    frame=  204 fps= 16 q=67.0 size=       1kB time=00:00:03.42 bitrate=   1.7kbits/s speed=0.273x    frame=  213 fps= 16 q=67.0 size=       1kB time=00:00:03.60 bitrate=   1.6kbits/s speed=0.276x    frame=  222 fps= 16 q=67.0 size=       1kB time=00:00:03.78 bitrate=   1.6kbits/s speed=0.279x    frame=  231 fps= 16 q=67.0 size=       1kB time=00:00:03.96 bitrate=   1.5kbits/s speed=0.282x    frame=  240 fps= 16 q=67.0 size=       1kB time=00:00:04.14 bitrate=   1.4kbits/s speed=0.282x    frame=  249 fps= 16 q=67.0 size=       1kB time=00:00:04.32 bitrate=   1.4kbits/s speed=0.284x    frame=  258 fps= 16 q=67.0 size=       1kB time=00:00:04.50 bitrate=   1.3kbits/s speed=0.287x    frame=  267 fps= 16 q=66.0 size=       1kB time=00:00:04.68 bitrate=   1.3kbits/s speed=0.289x    frame=  276 fps= 16 q=64.0 size=       1kB time=00:00:04.86 bitrate=   1.2kbits/s speed=0.289x    frame=  277 fps= 16 q=66.0 size=       1kB time=00:00:04.88 bitrate=   1.2kbits/s speed=0.28x    frame=  283 fps= 16 q=66.0 size=    1255kB time=00:00:05.00 bitrate=2056.3kbits/s speed=0.277x    frame=  290 fps= 16 q=66.0 size=    1255kB time=00:00:05.14 bitrate=2000.3kbits/s speed=0.277x    frame=  298 fps= 16 q=67.0 size=    1255kB time=00:00:05.30 bitrate=1939.9kbits/s speed=0.276x    frame=  307 fps= 16 q=67.0 size=    1255kB time=00:00:05.48 bitrate=1876.2kbits/s speed=0.278x    frame=  316 fps= 16 q=67.0 size=    1255kB time=00:00:05.66 bitrate=1816.6kbits/s speed=0.28x    frame=  325 fps= 16 q=67.0 size=    1255kB time=00:00:05.84 bitrate=1760.6kbits/s speed=0.282x    frame=  334 fps= 16 q=67.0 size=    1255kB time=00:00:06.02 bitrate=1707.9kbits/s speed=0.282x    frame=  343 fps= 16 q=67.0 size=    1255kB time=00:00:06.20 bitrate=1658.4kbits/s speed=0.283x    frame=  352 fps= 16 q=67.0 size=    1255kB time=00:00:06.38 bitrate=1611.6kbits/s speed=0.285x    frame=  361 fps= 16 q=67.0 size=    1255kB time=00:00:06.56 bitrate=1567.4kbits/s speed=0.286x    frame=  370 fps= 16 q=67.0 size=    1255kB time=00:00:06.74 bitrate=1525.5kbits/s speed=0.286x    frame=  379 fps= 16 q=67.0 size=    1255kB time=00:00:06.92 bitrate=1485.8kbits/s speed=0.288x    frame=  388 fps= 16 q=67.0 size=    1255kB time=00:00:07.10 bitrate=1448.2kbits/s speed=0.286x    frame=  398 fps= 16 q=67.0 size=    1255kB time=00:00:07.30 bitrate=1408.5kbits/s speed=0.287x    frame=  407 fps= 16 q=67.0 size=    1255kB time=00:00:07.48 bitrate=1374.6kbits/s speed=0.289x    frame=  416 fps= 16 q=67.0 size=    1255kB time=00:00:07.66 bitrate=1342.3kbits/s speed=0.29x    frame=  425 fps= 16 q=67.0 size=    1255kB time=00:00:07.84 bitrate=1311.5kbits/s speed=0.291x    frame=  434 fps= 16 q=67.0 size=    1255kB time=00:00:08.02 bitrate=1282.1kbits/s speed=0.291x    frame=  443 fps= 16 q=67.0 size=    1255kB time=00:00:08.20 bitrate=1253.9kbits/s speed=0.292x    frame=  452 fps= 16 q=67.0 size=    1255kB time=00:00:08.38 bitrate=1227.0kbits/s speed=0.293x    frame=  461 fps= 16 q=67.0 size=    1255kB time=00:00:08.56 bitrate=1201.2kbits/s speed=0.294x    frame=  470 fps= 16 q=67.0 size=    1255kB time=00:00:08.74 bitrate=1176.5kbits/s speed=0.294x    frame=  479 fps= 16 q=67.0 size=    1255kB time=00:00:08.92 bitrate=1152.7kbits/s speed=0.295x    frame=  488 fps= 16 q=67.0 size=    1255kB time=00:00:09.10 bitrate=1129.9kbits/s speed=0.295x    frame=  497 fps= 16 q=67.0 size=    1255kB time=00:00:09.28 bitrate=1108.0kbits/s speed=0.296x    frame=  500 fps= 15 q=-1.0 Lsize=    2560kB time=00:00:09.94 bitrate=2109.5kbits/s speed=0.305x    
video:2556kB audio:0kB subtitle:0kB other streams:0kB global headers:0kB muxing overhead: 0.165304%
bench: utime=92.620s
bench: maxrss=1340228kB
[libx264 @ 0x451b1c0] frame I:2     Avg QP:47.34  size: 62285
[libx264 @ 0x451b1c0] frame P:126   Avg QP:50.95  size: 10473
[libx264 @ 0x451b1c0] frame B:372   Avg QP:50.98  size:  3151
[libx264 @ 0x451b1c0] consecutive B-frames:  0.8%  0.0%  0.0% 99.2%
[libx264 @ 0x451b1c0] mb I  I16..4: 58.3% 41.5%  0.2%
[libx264 @ 0x451b1c0] mb P  I16..4:  5.1%  1.1%  0.0%  P16..4: 14.4%  1.4%  0.3%  0.0%  0.0%    skip:77.8%
[libx264 @ 0x451b1c0] mb B  I16..4:  0.0%  0.0%  0.0%  B16..8:  5.7%  0.0%  0.0%  direct: 0.2%  skip:94.0%  L0:46.0% L1:53.9% BI: 0.0%
[libx264 @ 0x451b1c0] final ratefactor: 58.98
[libx264 @ 0x451b1c0] 8x8 transform intra:23.0% inter:94.5%
[libx264 @ 0x451b1c0] coded y,uvDC,uvAC intra: 4.6% 10.1% 2.1% inter: 0.0% 0.1% 0.0%
[libx264 @ 0x451b1c0] i16 v,h,dc,p: 87%  9%  4%  1%
[libx264 @ 0x451b1c0] i8 v,h,dc,ddl,ddr,vr,hd,vl,hu: 12% 11% 52%  5%  3%  4%  4%  4%  4%
[libx264 @ 0x451b1c0] i4 v,h,dc,ddl,ddr,vr,hd,vl,hu: 22% 19% 18%  8%  9%  7%  6%  5%  6%
[libx264 @ 0x451b1c0] i8c dc,h,v,p: 97%  1%  1%  0%
[libx264 @ 0x451b1c0] Weighted P-Frames: Y:1.6% UV:0.0%
[libx264 @ 0x451b1c0] ref P L0: 55.7% 44.3%
[libx264 @ 0x451b1c0] ref B L0: 77.7% 22.3%
[libx264 @ 0x451b1c0] ref B L1: 89.3% 10.7%
[libx264 @ 0x451b1c0] kb/s:2093.05
